<svg width="26" height="26" viewBox="0 0 26 26" fill="none" xmlns="http://www.w3.org/2000/svg">
<path fill-rule="evenodd" clip-rule="evenodd" d="M15.5838 16.7327C12.7127 19.0323 8.50997 18.8513 5.84845 16.1897C2.99274 13.3341 2.99274 8.70404 5.84845 5.84833C8.70416 2.99262 13.3342 2.99262 16.1899 5.84833C18.8514 8.50984 19.0324 12.7125 16.7328 15.5837L22.3182 21.1689C22.6355 21.4862 22.6355 22.0007 22.3182 22.318C22.0009 22.6353 21.4864 22.6353 21.1691 22.318L15.5838 16.7327ZM6.9975 15.0407C4.77639 12.8196 4.77639 9.21848 6.9975 6.99737C9.21861 4.77627 12.8197 4.77627 15.0409 6.99737C17.2603 9.21685 17.2619 12.8143 15.0458 15.0359C15.0441 15.0375 15.0425 15.039 15.0408 15.0407C15.0391 15.0424 15.0375 15.044 15.036 15.0456C12.8144 17.2618 9.21698 17.2602 6.9975 15.0407Z" fill="#333333"/>
<path fill-rule="evenodd" clip-rule="evenodd" d="M15.5838 16.7327C12.7127 19.0323 8.50997 18.8513 5.84845 16.1897C2.99274 13.3341 2.99274 8.70404 5.84845 5.84833C8.70416 2.99262 13.3342 2.99262 16.1899 5.84833C18.8514 8.50984 19.0324 12.7125 16.7328 15.5837L22.3182 21.1689C22.6355 21.4862 22.6355 22.0007 22.3182 22.318C22.0009 22.6353 21.4864 22.6353 21.1691 22.318L15.5838 16.7327ZM6.9975 15.0407C4.77639 12.8196 4.77639 9.21848 6.9975 6.99737C9.21861 4.77627 12.8197 4.77627 15.0409 6.99737C17.2603 9.21685 17.2619 12.8143 15.0458 15.0359C15.0441 15.0375 15.0425 15.039 15.0408 15.0407C15.0391 15.0424 15.0375 15.044 15.036 15.0456C12.8144 17.2618 9.21698 17.2602 6.9975 15.0407Z" fill="#333333"/>
</svg>
